<!-- Generator: Adobe Illustrator 19.2.1, SVG Export Plug-In  -->
<svg version="1.1"
	 xmlns="http://www.w3.org/2000/svg" xmlns:xlink="http://www.w3.org/1999/xlink" xmlns:a="http://ns.adobe.com/AdobeSVGViewerExtensions/3.0/"
	 x="0px" y="0px" width="379.111px" height="361.404px" viewBox="0 0 379.111 361.404"
	 style="enable-background:new 0 0 379.111 361.404;" xml:space="preserve">
<style type="text/css">
	.st0{opacity:0.2;}
	.st1{opacity:0.59;}
	.st2{fill:none;}
	.st3{opacity:0.9;}
</style>
<defs>
</defs>
<circle class="st0" cx="105.618" cy="255.786" r="105.618"/>
<circle class="st0" cx="273.493" cy="255.786" r="105.618"/>
<circle class="st0" cx="189.555" cy="105.618" r="105.618"/>
<g class="st1">
	<rect x="145.483" y="87.357" class="st2" width="88.144" height="62.81"/>
	<path d="M149.368,101.853c0.936,0.576,2.304,1.056,3.744,1.056c2.136,0,3.384-1.128,3.384-2.76c0-1.512-0.863-2.376-3.048-3.216
		c-2.641-0.936-4.272-2.304-4.272-4.584c0-2.521,2.088-4.393,5.232-4.393c1.656,0,2.856,0.384,3.576,0.792l-0.576,1.704
		c-0.527-0.288-1.607-0.768-3.072-0.768c-2.208,0-3.048,1.32-3.048,2.424c0,1.512,0.984,2.256,3.216,3.12
		c2.736,1.056,4.129,2.376,4.129,4.752c0,2.497-1.849,4.657-5.665,4.657c-1.56,0-3.264-0.456-4.128-1.032L149.368,101.853z"/>
	<path d="M163.889,89.444v3.336h3.024v1.608h-3.024v6.265c0,1.44,0.408,2.256,1.584,2.256c0.552,0,0.96-0.072,1.224-0.144
		l0.097,1.584c-0.408,0.168-1.057,0.288-1.872,0.288c-0.984,0-1.776-0.312-2.28-0.888c-0.601-0.624-0.816-1.656-0.816-3.024v-6.336
		h-1.8V92.78h1.8v-2.784L163.889,89.444z"/>
	<path d="M169.288,96.404c0-1.368-0.024-2.544-0.096-3.625h1.848l0.072,2.28h0.096c0.528-1.56,1.801-2.544,3.217-2.544
		c0.239,0,0.408,0.024,0.6,0.072v1.992c-0.216-0.048-0.432-0.072-0.72-0.072c-1.488,0-2.544,1.128-2.832,2.712
		c-0.049,0.288-0.097,0.624-0.097,0.984v6.192h-2.088V96.404z"/>
	<path d="M183.449,104.397l-0.168-1.464h-0.072c-0.647,0.912-1.896,1.729-3.552,1.729c-2.353,0-3.553-1.656-3.553-3.336
		c0-2.808,2.496-4.344,6.984-4.32v-0.24c0-0.96-0.264-2.688-2.64-2.688c-1.08,0-2.209,0.336-3.024,0.864l-0.48-1.392
		c0.96-0.624,2.353-1.032,3.816-1.032c3.553,0,4.417,2.424,4.417,4.752v4.344c0,1.008,0.048,1.992,0.191,2.784H183.449z
		 M183.137,98.468c-2.304-0.048-4.92,0.36-4.92,2.616c0,1.368,0.912,2.017,1.992,2.017c1.512,0,2.472-0.96,2.808-1.944
		c0.072-0.216,0.12-0.456,0.12-0.672V98.468z"/>
	<path d="M191.032,89.444v3.336h3.024v1.608h-3.024v6.265c0,1.44,0.408,2.256,1.584,2.256c0.553,0,0.961-0.072,1.225-0.144
		l0.096,1.584c-0.408,0.168-1.056,0.288-1.872,0.288c-0.984,0-1.776-0.312-2.28-0.888c-0.6-0.624-0.815-1.656-0.815-3.024v-6.336
		h-1.801V92.78h1.801v-2.784L191.032,89.444z"/>
	<path d="M197.464,98.973c0.048,2.856,1.872,4.032,3.984,4.032c1.513,0,2.425-0.264,3.217-0.6l0.359,1.512
		c-0.744,0.336-2.016,0.72-3.864,0.72c-3.576,0-5.712-2.353-5.712-5.857c0-3.504,2.063-6.264,5.448-6.264
		c3.792,0,4.801,3.336,4.801,5.472c0,0.432-0.049,0.768-0.072,0.984H197.464z M203.656,97.461c0.024-1.344-0.552-3.433-2.928-3.433
		c-2.137,0-3.072,1.968-3.24,3.433H203.656z"/>
	<path d="M218.321,92.78c-0.048,0.84-0.096,1.776-0.096,3.192v6.745c0,2.664-0.528,4.296-1.656,5.305
		c-1.128,1.056-2.761,1.392-4.225,1.392c-1.392,0-2.928-0.336-3.864-0.96l0.528-1.608c0.768,0.48,1.968,0.912,3.408,0.912
		c2.16,0,3.744-1.128,3.744-4.057v-1.296h-0.048c-0.648,1.08-1.896,1.944-3.696,1.944c-2.881,0-4.944-2.448-4.944-5.665
		c0-3.937,2.568-6.168,5.232-6.168c2.016,0,3.12,1.056,3.624,2.016h0.048l0.097-1.752H218.321z M216.137,97.364
		c0-0.36-0.023-0.672-0.119-0.96c-0.385-1.224-1.417-2.232-2.953-2.232c-2.016,0-3.456,1.705-3.456,4.393
		c0,2.28,1.152,4.176,3.433,4.176c1.296,0,2.472-0.816,2.928-2.16c0.12-0.36,0.168-0.768,0.168-1.128V97.364z"/>
	<path d="M222.495,92.78l2.545,6.865c0.264,0.768,0.552,1.68,0.744,2.376h0.048c0.216-0.696,0.456-1.584,0.744-2.424l2.304-6.817
		h2.232l-3.168,8.281c-1.513,3.984-2.545,6.025-3.984,7.273c-1.032,0.912-2.064,1.272-2.593,1.368l-0.527-1.776
		c0.527-0.168,1.224-0.504,1.848-1.032c0.576-0.456,1.296-1.272,1.776-2.352c0.096-0.216,0.168-0.384,0.168-0.504
		c0-0.12-0.048-0.288-0.145-0.552l-4.296-10.705H222.495z"/>
	<path d="M167.536,118.796h-4.921v-1.776h11.978v1.776h-4.944v14.401h-2.112V118.796z"/>
	<path d="M175.791,127.773c0.048,2.856,1.872,4.032,3.984,4.032c1.513,0,2.425-0.264,3.217-0.6l0.359,1.512
		c-0.744,0.336-2.016,0.72-3.864,0.72c-3.576,0-5.712-2.353-5.712-5.857c0-3.504,2.063-6.264,5.448-6.264
		c3.792,0,4.801,3.336,4.801,5.472c0,0.432-0.049,0.768-0.072,0.984H175.791z M181.983,126.26c0.024-1.344-0.552-3.433-2.928-3.433
		c-2.137,0-3.072,1.968-3.24,3.433H181.983z"/>
	<path d="M193.071,133.197l-0.168-1.464h-0.071c-0.648,0.912-1.896,1.729-3.553,1.729c-2.353,0-3.553-1.656-3.553-3.336
		c0-2.808,2.497-4.344,6.985-4.32v-0.24c0-0.96-0.265-2.688-2.641-2.688c-1.08,0-2.208,0.336-3.024,0.864l-0.479-1.392
		c0.96-0.624,2.352-1.032,3.816-1.032c3.552,0,4.416,2.424,4.416,4.752v4.344c0,1.008,0.048,1.992,0.192,2.784H193.071z
		 M192.76,127.268c-2.305-0.048-4.921,0.36-4.921,2.616c0,1.368,0.912,2.017,1.992,2.017c1.513,0,2.473-0.96,2.809-1.944
		c0.072-0.216,0.12-0.456,0.12-0.672V127.268z"/>
	<path d="M198.207,124.724c0-1.2-0.024-2.184-0.096-3.145h1.848l0.096,1.873h0.072c0.648-1.104,1.729-2.136,3.648-2.136
		c1.584,0,2.784,0.96,3.288,2.328h0.048c0.36-0.648,0.816-1.152,1.297-1.512c0.695-0.528,1.464-0.816,2.568-0.816
		c1.536,0,3.815,1.008,3.815,5.04v6.841h-2.063v-6.577c0-2.232-0.816-3.576-2.521-3.576c-1.2,0-2.136,0.888-2.496,1.92
		c-0.096,0.288-0.168,0.672-0.168,1.056v7.177h-2.064v-6.96c0-1.848-0.816-3.192-2.424-3.192c-1.32,0-2.28,1.056-2.616,2.112
		c-0.12,0.312-0.168,0.672-0.168,1.032v7.009h-2.064V124.724z"/>
</g>
<g class="st1">
	<rect x="233.628" y="240.041" class="st2" width="94.407" height="54.925"/>
	<path d="M239.804,241.119c0.912-0.192,2.353-0.336,3.816-0.336c2.088,0,3.433,0.359,4.44,1.176c0.84,0.624,1.344,1.584,1.344,2.856
		c0,1.56-1.031,2.928-2.735,3.552v0.049c1.536,0.384,3.336,1.655,3.336,4.056c0,1.393-0.552,2.448-1.368,3.24
		c-1.128,1.032-2.952,1.513-5.593,1.513c-1.439,0-2.544-0.097-3.24-0.192V241.119z M241.892,247.743h1.896
		c2.208,0,3.505-1.151,3.505-2.712c0-1.896-1.44-2.641-3.553-2.641c-0.96,0-1.512,0.072-1.849,0.145V247.743z M241.892,255.496
		c0.408,0.072,1.009,0.096,1.753,0.096c2.16,0,4.152-0.792,4.152-3.144c0-2.209-1.896-3.12-4.177-3.12h-1.729V255.496z"/>
	<path d="M262.461,253.912c0,1.2,0.023,2.256,0.096,3.168h-1.872l-0.12-1.896h-0.048c-0.553,0.936-1.776,2.16-3.841,2.16
		c-1.824,0-4.008-1.009-4.008-5.089v-6.793h2.112v6.433c0,2.209,0.672,3.696,2.592,3.696c1.416,0,2.4-0.983,2.784-1.92
		c0.12-0.312,0.192-0.696,0.192-1.08v-7.129h2.112V253.912z"/>
	<path d="M265.676,254.92c0.624,0.408,1.729,0.84,2.784,0.84c1.536,0,2.256-0.768,2.256-1.728c0-1.008-0.6-1.561-2.16-2.137
		c-2.088-0.744-3.072-1.896-3.072-3.288c0-1.872,1.513-3.408,4.009-3.408c1.176,0,2.208,0.336,2.856,0.72l-0.528,1.536
		c-0.456-0.288-1.296-0.672-2.376-0.672c-1.248,0-1.944,0.721-1.944,1.584c0,0.961,0.696,1.393,2.208,1.969
		c2.017,0.768,3.049,1.776,3.049,3.504c0,2.04-1.585,3.48-4.345,3.48c-1.272,0-2.448-0.312-3.265-0.792L265.676,254.92z"/>
	<path d="M277.82,242.199c0.023,0.72-0.505,1.296-1.345,1.296c-0.744,0-1.271-0.576-1.271-1.296c0-0.744,0.552-1.32,1.319-1.32
		C277.315,240.879,277.82,241.455,277.82,242.199z M275.468,257.08v-11.617h2.112v11.617H275.468z"/>
	<path d="M281.083,248.608c0-1.2-0.023-2.184-0.096-3.145h1.872l0.12,1.921h0.048c0.576-1.104,1.921-2.185,3.841-2.185
		c1.608,0,4.104,0.96,4.104,4.944v6.937h-2.112v-6.696c0-1.872-0.696-3.433-2.688-3.433c-1.393,0-2.473,0.984-2.832,2.16
		c-0.097,0.265-0.145,0.624-0.145,0.984v6.984h-2.112V248.608z"/>
	<path d="M295.579,251.656c0.048,2.855,1.872,4.032,3.984,4.032c1.513,0,2.425-0.265,3.217-0.601l0.359,1.513
		c-0.744,0.336-2.016,0.72-3.864,0.72c-3.576,0-5.712-2.353-5.712-5.856s2.063-6.265,5.448-6.265c3.792,0,4.801,3.336,4.801,5.473
		c0,0.432-0.049,0.768-0.072,0.984H295.579z M301.771,250.144c0.024-1.344-0.552-3.433-2.928-3.433c-2.137,0-3.072,1.969-3.24,3.433
		H301.771z"/>
	<path d="M306.14,254.92c0.624,0.408,1.728,0.84,2.784,0.84c1.536,0,2.256-0.768,2.256-1.728c0-1.008-0.601-1.561-2.16-2.137
		c-2.088-0.744-3.072-1.896-3.072-3.288c0-1.872,1.512-3.408,4.008-3.408c1.177,0,2.209,0.336,2.856,0.72l-0.527,1.536
		c-0.456-0.288-1.297-0.672-2.377-0.672c-1.248,0-1.944,0.721-1.944,1.584c0,0.961,0.696,1.393,2.209,1.969
		c2.016,0.768,3.048,1.776,3.048,3.504c0,2.04-1.584,3.48-4.345,3.48c-1.271,0-2.448-0.312-3.264-0.792L306.14,254.92z"/>
	<path d="M315.643,254.92c0.624,0.408,1.728,0.84,2.784,0.84c1.536,0,2.256-0.768,2.256-1.728c0-1.008-0.601-1.561-2.16-2.137
		c-2.088-0.744-3.072-1.896-3.072-3.288c0-1.872,1.512-3.408,4.008-3.408c1.177,0,2.209,0.336,2.856,0.72l-0.527,1.536
		c-0.456-0.288-1.297-0.672-2.377-0.672c-1.248,0-1.944,0.721-1.944,1.584c0,0.961,0.696,1.393,2.209,1.969
		c2.016,0.768,3.048,1.776,3.048,3.504c0,2.04-1.584,3.48-4.345,3.48c-1.271,0-2.448-0.312-3.264-0.792L315.643,254.92z"/>
	<path d="M258.812,271.48h-4.921v-1.776h11.978v1.776h-4.944v14.401h-2.112V271.48z"/>
	<path d="M267.067,280.456c0.048,2.856,1.872,4.032,3.984,4.032c1.513,0,2.425-0.264,3.217-0.6l0.359,1.512
		c-0.744,0.336-2.016,0.721-3.864,0.721c-3.576,0-5.712-2.353-5.712-5.857c0-3.504,2.063-6.264,5.448-6.264
		c3.792,0,4.801,3.336,4.801,5.472c0,0.433-0.049,0.769-0.072,0.984H267.067z M273.26,278.945c0.024-1.345-0.552-3.433-2.928-3.433
		c-2.137,0-3.072,1.968-3.24,3.433H273.26z"/>
	<path d="M284.348,285.881l-0.168-1.465h-0.071c-0.648,0.912-1.896,1.729-3.553,1.729c-2.353,0-3.553-1.656-3.553-3.336
		c0-2.809,2.497-4.345,6.985-4.32v-0.24c0-0.96-0.265-2.688-2.641-2.688c-1.08,0-2.208,0.336-3.024,0.864l-0.479-1.393
		c0.96-0.624,2.352-1.031,3.816-1.031c3.552,0,4.416,2.424,4.416,4.752v4.345c0,1.008,0.048,1.992,0.192,2.784H284.348z
		 M284.036,279.952c-2.305-0.048-4.921,0.36-4.921,2.616c0,1.368,0.912,2.017,1.992,2.017c1.513,0,2.473-0.961,2.809-1.944
		c0.072-0.217,0.12-0.456,0.12-0.672V279.952z"/>
	<path d="M289.483,277.408c0-1.2-0.024-2.185-0.096-3.145h1.848l0.096,1.872h0.072c0.648-1.104,1.729-2.136,3.648-2.136
		c1.584,0,2.784,0.96,3.288,2.328h0.048c0.36-0.648,0.816-1.152,1.297-1.513c0.695-0.527,1.464-0.815,2.568-0.815
		c1.536,0,3.815,1.008,3.815,5.04v6.841h-2.063v-6.577c0-2.231-0.816-3.576-2.521-3.576c-1.2,0-2.136,0.889-2.496,1.92
		c-0.096,0.288-0.168,0.673-0.168,1.057v7.177h-2.064v-6.961c0-1.848-0.816-3.192-2.424-3.192c-1.32,0-2.28,1.057-2.616,2.112
		c-0.12,0.312-0.168,0.672-0.168,1.032v7.009h-2.064V277.408z"/>
</g>
<g class="st3">
	<rect x="121.258" y="184.322" class="st2" width="167.836" height="41.872"/>
	<path d="M123.809,184.321h5.1v35.6h-5.1V184.321z"/>
	<path d="M133.559,194.571h5.1v2.45h0.1c0.533-0.801,1.176-1.458,1.926-1.976c0.75-0.517,1.707-0.774,2.875-0.774
		c0.633,0,1.266,0.108,1.899,0.324c0.633,0.218,1.2,0.575,1.7,1.075s0.9,1.143,1.2,1.925c0.3,0.784,0.45,1.742,0.45,2.875v19.45
		h-5.101v-17.55c0-0.933-0.217-1.666-0.649-2.2c-0.434-0.532-1.051-0.8-1.851-0.8c-0.967,0-1.634,0.3-2,0.9
		c-0.367,0.6-0.55,1.467-0.55,2.6v17.05h-5.1V194.571z"/>
	<path d="M153.008,194.571h5.101v2.45h0.1c0.533-0.801,1.175-1.458,1.925-1.976c0.75-0.517,1.708-0.774,2.875-0.774
		c0.633,0,1.267,0.108,1.9,0.324c0.633,0.218,1.2,0.575,1.7,1.075s0.899,1.143,1.199,1.925c0.301,0.784,0.45,1.742,0.45,2.875v19.45
		h-5.1v-17.55c0-0.933-0.218-1.666-0.65-2.2c-0.434-0.532-1.05-0.8-1.85-0.8c-0.968,0-1.634,0.3-2,0.9
		c-0.367,0.6-0.55,1.467-0.55,2.6v17.05h-5.101V194.571z"/>
	<path d="M172.008,203.071c0-1.033,0.066-1.983,0.2-2.851c0.133-0.866,0.383-1.633,0.75-2.3c0.6-1.1,1.466-1.982,2.6-2.649
		c1.133-0.667,2.482-1,4.05-1c1.566,0,2.917,0.333,4.05,1s2,1.55,2.601,2.649c0.366,0.667,0.616,1.434,0.75,2.3
		c0.133,0.867,0.2,1.817,0.2,2.851v8.35c0,1.034-0.067,1.983-0.2,2.851c-0.134,0.867-0.384,1.633-0.75,2.3
		c-0.601,1.1-1.468,1.983-2.601,2.649c-1.133,0.668-2.483,1-4.05,1c-1.567,0-2.917-0.332-4.05-1c-1.134-0.666-2-1.55-2.6-2.649
		c-0.367-0.667-0.617-1.433-0.75-2.3c-0.134-0.867-0.2-1.816-0.2-2.851V203.071z M177.107,212.221c0,0.968,0.226,1.692,0.675,2.176
		c0.45,0.483,1.059,0.725,1.825,0.725s1.375-0.241,1.825-0.725s0.675-1.208,0.675-2.176v-9.949c0-0.967-0.225-1.691-0.675-2.176
		c-0.45-0.482-1.059-0.725-1.825-0.725s-1.375,0.242-1.825,0.725c-0.449,0.484-0.675,1.209-0.675,2.176V212.221z"/>
	<path d="M199.607,219.921h-4.5l-6.6-25.35h5.399l3.4,16.2h0.1l3.4-16.2h5.399L199.607,219.921z"/>
	<path d="M217.607,217.321h-0.101c-0.667,0.934-1.342,1.649-2.024,2.149c-0.684,0.5-1.643,0.75-2.875,0.75
		c-0.601,0-1.218-0.092-1.851-0.274s-1.225-0.517-1.774-1s-1-1.167-1.351-2.05c-0.35-0.883-0.524-2.025-0.524-3.426
		c0-1.433,0.116-2.691,0.35-3.774s0.658-1.983,1.275-2.7c0.616-0.717,1.441-1.25,2.475-1.6c1.033-0.351,2.351-0.525,3.95-0.525
		c0.366,0,0.732,0.018,1.1,0.05c0.367,0.034,0.816,0.067,1.351,0.101v-2.65c0-0.866-0.184-1.583-0.55-2.15
		c-0.367-0.566-1.034-0.85-2-0.85c-0.668,0-1.275,0.217-1.825,0.65s-0.909,1.066-1.075,1.899h-4.95c0.167-2.3,0.933-4.133,2.3-5.5
		c0.667-0.666,1.467-1.191,2.4-1.575c0.933-0.383,1.982-0.574,3.15-0.574c1.066,0,2.066,0.167,3,0.5
		c0.933,0.333,1.741,0.833,2.425,1.5c0.683,0.667,1.225,1.5,1.625,2.5c0.399,1,0.6,2.167,0.6,3.5v17.649h-5.1V217.321z
		 M217.607,209.022c-0.567-0.101-1.034-0.15-1.4-0.15c-1.1,0-2.042,0.259-2.825,0.775s-1.175,1.458-1.175,2.824
		c0,0.968,0.233,1.75,0.7,2.351c0.467,0.6,1.116,0.899,1.95,0.899c0.866,0,1.541-0.282,2.024-0.85
		c0.483-0.566,0.726-1.366,0.726-2.4V209.022z"/>
	<path d="M226.457,186.871h5.101v7.7h3.149v4h-3.149v14.05c0,0.6,0.058,1.067,0.175,1.4c0.116,0.333,0.3,0.583,0.55,0.75
		s0.575,0.267,0.975,0.3c0.4,0.033,0.883,0.05,1.45,0.05v4.8h-2.1c-1.167,0-2.143-0.183-2.925-0.55
		c-0.784-0.366-1.409-0.833-1.875-1.4c-0.468-0.566-0.809-1.207-1.025-1.925c-0.217-0.716-0.325-1.407-0.325-2.075v-15.399h-2.55v-4
		h2.55V186.871z"/>
	<path d="M236.657,184.321h5.1v5.1h-5.1V184.321z M236.657,194.571h5.1v25.35h-5.1V194.571z"/>
	<path d="M245.506,203.071c0-1.033,0.066-1.983,0.2-2.851c0.133-0.866,0.383-1.633,0.75-2.3c0.601-1.1,1.467-1.982,2.601-2.649
		c1.133-0.667,2.482-1,4.05-1c1.566,0,2.916,0.333,4.05,1c1.133,0.667,2,1.55,2.6,2.649c0.367,0.667,0.617,1.434,0.75,2.3
		c0.133,0.867,0.2,1.817,0.2,2.851v8.35c0,1.034-0.067,1.983-0.2,2.851s-0.383,1.633-0.75,2.3c-0.6,1.1-1.467,1.983-2.6,2.649
		c-1.134,0.668-2.483,1-4.05,1c-1.567,0-2.917-0.332-4.05-1c-1.134-0.666-2-1.55-2.601-2.649c-0.367-0.667-0.617-1.433-0.75-2.3
		c-0.134-0.867-0.2-1.816-0.2-2.851V203.071z M250.606,212.221c0,0.968,0.225,1.692,0.675,2.176s1.058,0.725,1.825,0.725
		c0.767,0,1.375-0.241,1.825-0.725c0.449-0.483,0.675-1.208,0.675-2.176v-9.949c0-0.967-0.226-1.691-0.675-2.176
		c-0.45-0.482-1.059-0.725-1.825-0.725c-0.768,0-1.375,0.242-1.825,0.725c-0.45,0.484-0.675,1.209-0.675,2.176V212.221z"/>
	<path d="M264.456,194.571h5.101v2.45h0.1c0.533-0.801,1.175-1.458,1.925-1.976c0.75-0.517,1.708-0.774,2.875-0.774
		c0.633,0,1.267,0.108,1.9,0.324c0.633,0.218,1.2,0.575,1.7,1.075s0.899,1.143,1.199,1.925c0.301,0.784,0.45,1.742,0.45,2.875v19.45
		h-5.1v-17.55c0-0.933-0.218-1.666-0.65-2.2c-0.434-0.532-1.05-0.8-1.85-0.8c-0.968,0-1.634,0.3-2,0.9
		c-0.367,0.6-0.55,1.467-0.55,2.6v17.05h-5.101V194.571z"/>
</g>
<g class="st1">
	<rect x="35.361" y="239.708" class="st2" width="140.514" height="55.591"/>
	<path d="M45.739,242.346h-4.92v-1.776h11.977v1.776h-4.944v14.401h-2.112V242.346z"/>
	<path d="M53.995,251.322c0.048,2.856,1.872,4.032,3.984,4.032c1.512,0,2.424-0.264,3.216-0.6l0.36,1.512
		c-0.744,0.336-2.017,0.721-3.864,0.721c-3.576,0-5.713-2.353-5.713-5.857c0-3.504,2.064-6.264,5.448-6.264
		c3.793,0,4.801,3.336,4.801,5.472c0,0.433-0.048,0.769-0.072,0.984H53.995z M60.187,249.811c0.024-1.345-0.552-3.433-2.929-3.433
		c-2.136,0-3.072,1.968-3.24,3.433H60.187z"/>
	<path d="M73.123,256.315c-0.552,0.288-1.775,0.673-3.336,0.673c-3.504,0-5.784-2.377-5.784-5.929c0-3.576,2.448-6.169,6.24-6.169
		c1.248,0,2.353,0.312,2.929,0.601l-0.48,1.632c-0.504-0.288-1.296-0.552-2.448-0.552c-2.664,0-4.104,1.968-4.104,4.392
		c0,2.688,1.729,4.345,4.032,4.345c1.2,0,1.992-0.312,2.593-0.576L73.123,256.315z"/>
	<path d="M75.595,239.705h2.112v7.249h0.048c0.336-0.601,0.864-1.128,1.512-1.488c0.624-0.36,1.368-0.6,2.16-0.6
		c1.561,0,4.057,0.96,4.057,4.968v6.913h-2.112v-6.673c0-1.872-0.696-3.456-2.688-3.456c-1.368,0-2.448,0.96-2.833,2.112
		c-0.12,0.288-0.144,0.6-0.144,1.008v7.009h-2.112V239.705z"/>
	<path d="M99.428,250.843c0,4.296-2.977,6.168-5.785,6.168c-3.144,0-5.568-2.304-5.568-5.977c0-3.888,2.544-6.168,5.761-6.168
		C97.171,244.866,99.428,247.29,99.428,250.843z M90.211,250.962c0,2.545,1.464,4.465,3.528,4.465c2.016,0,3.528-1.896,3.528-4.513
		c0-1.968-0.984-4.464-3.48-4.464S90.211,248.754,90.211,250.962z"/>
	<path d="M102.09,248.275c0-1.2-0.023-2.185-0.096-3.145h1.872l0.12,1.92h0.048c0.576-1.104,1.921-2.184,3.841-2.184
		c1.608,0,4.104,0.96,4.104,4.944v6.937h-2.112v-6.697c0-1.872-0.696-3.432-2.688-3.432c-1.393,0-2.473,0.983-2.832,2.16
		c-0.097,0.264-0.145,0.624-0.145,0.984v6.984h-2.112V248.275z"/>
	<path d="M125.923,250.843c0,4.296-2.977,6.168-5.784,6.168c-3.145,0-5.568-2.304-5.568-5.977c0-3.888,2.544-6.168,5.76-6.168
		C123.667,244.866,125.923,247.29,125.923,250.843z M116.706,250.962c0,2.545,1.464,4.465,3.528,4.465
		c2.017,0,3.528-1.896,3.528-4.513c0-1.968-0.984-4.464-3.48-4.464S116.706,248.754,116.706,250.962z"/>
	<path d="M128.586,239.705h2.112v17.042h-2.112V239.705z"/>
	<path d="M144.763,250.843c0,4.296-2.977,6.168-5.785,6.168c-3.144,0-5.568-2.304-5.568-5.977c0-3.888,2.544-6.168,5.761-6.168
		C142.506,244.866,144.763,247.29,144.763,250.843z M135.546,250.962c0,2.545,1.464,4.465,3.528,4.465
		c2.016,0,3.528-1.896,3.528-4.513c0-1.968-0.984-4.464-3.48-4.464S135.546,248.754,135.546,250.962z"/>
	<path d="M157.434,245.13c-0.049,0.84-0.097,1.776-0.097,3.192v6.744c0,2.664-0.528,4.297-1.656,5.305
		c-1.128,1.056-2.76,1.393-4.224,1.393c-1.393,0-2.929-0.337-3.865-0.961l0.528-1.607c0.769,0.479,1.969,0.912,3.408,0.912
		c2.16,0,3.744-1.128,3.744-4.057v-1.296h-0.048c-0.647,1.08-1.896,1.944-3.696,1.944c-2.88,0-4.944-2.448-4.944-5.665
		c0-3.937,2.568-6.168,5.232-6.168c2.017,0,3.12,1.056,3.625,2.016h0.048l0.096-1.752H157.434z M155.25,249.714
		c0-0.359-0.024-0.672-0.12-0.96c-0.384-1.224-1.416-2.232-2.952-2.232c-2.017,0-3.456,1.705-3.456,4.393
		c0,2.28,1.151,4.177,3.432,4.177c1.297,0,2.473-0.816,2.929-2.16c0.12-0.36,0.168-0.769,0.168-1.128V249.714z"/>
	<path d="M161.609,245.13l2.544,6.864c0.265,0.769,0.553,1.681,0.744,2.377h0.048c0.217-0.696,0.456-1.585,0.744-2.425l2.305-6.816
		h2.231l-3.168,8.28c-1.512,3.984-2.544,6.025-3.984,7.273c-1.032,0.912-2.064,1.271-2.592,1.368l-0.528-1.776
		c0.528-0.168,1.225-0.504,1.849-1.032c0.575-0.456,1.296-1.272,1.775-2.353c0.097-0.216,0.168-0.384,0.168-0.504
		s-0.048-0.288-0.144-0.552l-4.297-10.705H161.609z"/>
	<path d="M83.599,271.146h-4.92v-1.775h11.977v1.775h-4.944v14.401h-2.112V271.146z"/>
	<path d="M91.854,280.123c0.048,2.855,1.872,4.032,3.984,4.032c1.512,0,2.424-0.265,3.216-0.601l0.36,1.513
		c-0.744,0.336-2.017,0.72-3.864,0.72c-3.576,0-5.713-2.353-5.713-5.856s2.064-6.265,5.448-6.265c3.793,0,4.801,3.336,4.801,5.473
		c0,0.432-0.048,0.768-0.072,0.984H91.854z M98.047,278.611c0.024-1.344-0.552-3.432-2.929-3.432c-2.136,0-3.072,1.968-3.24,3.432
		H98.047z"/>
	<path d="M109.135,285.547l-0.168-1.464h-0.072c-0.648,0.912-1.896,1.729-3.552,1.729c-2.353,0-3.553-1.656-3.553-3.337
		c0-2.808,2.496-4.344,6.984-4.32v-0.24c0-0.96-0.264-2.688-2.64-2.688c-1.08,0-2.209,0.336-3.024,0.863l-0.48-1.392
		c0.96-0.624,2.353-1.032,3.816-1.032c3.553,0,4.417,2.424,4.417,4.753v4.344c0,1.008,0.048,1.992,0.191,2.784H109.135z
		 M108.822,279.618c-2.304-0.048-4.92,0.36-4.92,2.616c0,1.368,0.912,2.017,1.992,2.017c1.512,0,2.472-0.96,2.808-1.944
		c0.072-0.216,0.12-0.456,0.12-0.672V279.618z"/>
	<path d="M114.269,277.074c0-1.2-0.023-2.184-0.096-3.145h1.849l0.096,1.873h0.072c0.647-1.104,1.728-2.137,3.648-2.137
		c1.584,0,2.784,0.96,3.288,2.328h0.048c0.36-0.647,0.816-1.152,1.296-1.512c0.696-0.528,1.464-0.816,2.568-0.816
		c1.536,0,3.816,1.008,3.816,5.04v6.841h-2.064v-6.576c0-2.232-0.815-3.576-2.52-3.576c-1.2,0-2.137,0.888-2.497,1.92
		c-0.096,0.288-0.168,0.672-0.168,1.056v7.177h-2.063v-6.96c0-1.849-0.816-3.192-2.425-3.192c-1.32,0-2.28,1.056-2.616,2.112
		c-0.12,0.312-0.168,0.672-0.168,1.031v7.009h-2.064V277.074z"/>
</g>
</svg>