<?xml version="1.0" encoding="utf-8"?>
<!-- Generator: Adobe Illustrator 19.2.1, SVG Export Plug-In . SVG Version: 6.00 Build 0)  -->
<svg version="1.1" id="Layer_1" xmlns="http://www.w3.org/2000/svg" xmlns:xlink="http://www.w3.org/1999/xlink" x="0px" y="0px"
	 viewBox="0 0 529.5 86.7" style="enable-background:new 0 0 529.5 86.7;" xml:space="preserve">
<style type="text/css">
	.st0{fill:none;stroke:#000000;stroke-miterlimit:10;}
</style>
<line class="st0" x1="228.2" y1="23.3" x2="228.2" y2="64"/>
<g>
	<path d="M252.6,23.8h7.7v1.6h-5.9v4.8h5.4v1.5h-5.4v6.5h-1.9V23.8z"/>
	<path d="M270.4,31.4h-5.6v5.2h6.2v1.6H263V23.8h7.8v1.6h-5.9v4.5h5.6V31.4z"/>
	<path d="M284.4,37.5c-0.8,0.3-2.5,0.8-4.4,0.8c-2.2,0-4-0.6-5.4-1.9c-1.2-1.2-2-3.1-2-5.3c0-4.3,3-7.4,7.8-7.4c1.7,0,3,0.4,3.6,0.7
		l-0.4,1.5c-0.8-0.3-1.7-0.6-3.2-0.6c-3.5,0-5.8,2.2-5.8,5.8c0,3.6,2.2,5.8,5.5,5.8c1.2,0,2-0.2,2.5-0.4v-4.3h-2.9v-1.5h4.7V37.5z"
		/>
	<path d="M293.6,23.8v14.4h-1.9V23.8H293.6z"/>
	<path d="M296.9,30.7c0-1.1,0-1.9-0.1-2.8h1.7l0.1,1.7h0c0.5-1,1.7-1.9,3.4-1.9c1.4,0,3.6,0.9,3.6,4.4v6.2h-1.9v-5.9
		c0-1.7-0.6-3-2.4-3c-1.2,0-2.2,0.9-2.5,1.9c-0.1,0.2-0.1,0.6-0.1,0.9v6.2h-1.9V30.7z"/>
	<path d="M308.8,30.7c0-1.1,0-1.9-0.1-2.8h1.7l0.1,1.7h0c0.5-1,1.7-1.9,3.4-1.9c1.4,0,3.6,0.9,3.6,4.4v6.2h-1.9v-5.9
		c0-1.7-0.6-3-2.4-3c-1.2,0-2.2,0.9-2.5,1.9c-0.1,0.2-0.1,0.6-0.1,0.9v6.2h-1.9V30.7z"/>
	<path d="M329.9,32.9c0,3.8-2.6,5.5-5.1,5.5c-2.8,0-4.9-2-4.9-5.3c0-3.5,2.3-5.5,5.1-5.5C327.9,27.6,329.9,29.8,329.9,32.9z
		 M321.7,33c0,2.3,1.3,4,3.1,4c1.8,0,3.1-1.7,3.1-4c0-1.7-0.9-4-3.1-4S321.7,31.1,321.7,33z"/>
	<path d="M332.9,27.9l2,5.8c0.3,0.9,0.6,1.8,0.8,2.6h0.1c0.2-0.9,0.5-1.7,0.9-2.6l2-5.8h2l-4,10.3h-1.8l-3.9-10.3H332.9z"/>
	<path d="M348,38.2l-0.1-1.3h-0.1c-0.6,0.8-1.7,1.5-3.2,1.5c-2.1,0-3.2-1.5-3.2-3c0-2.5,2.2-3.9,6.2-3.8v-0.2c0-0.9-0.2-2.4-2.3-2.4
		c-1,0-2,0.3-2.7,0.8l-0.4-1.2c0.9-0.6,2.1-0.9,3.4-0.9c3.2,0,3.9,2.2,3.9,4.2v3.9c0,0.9,0,1.8,0.2,2.5H348z M347.7,32.9
		c-2,0-4.4,0.3-4.4,2.3c0,1.2,0.8,1.8,1.8,1.8c1.3,0,2.2-0.9,2.5-1.7c0.1-0.2,0.1-0.4,0.1-0.6V32.9z"/>
	<path d="M354.7,24.9v3h2.7v1.4h-2.7v5.6c0,1.3,0.4,2,1.4,2c0.5,0,0.9-0.1,1.1-0.1l0.1,1.4c-0.4,0.1-0.9,0.3-1.7,0.3
		c-0.9,0-1.6-0.3-2-0.8c-0.5-0.6-0.7-1.5-0.7-2.7v-5.6h-1.6v-1.4h1.6v-2.5L354.7,24.9z"/>
	<path d="M361.6,25c0,0.6-0.4,1.2-1.2,1.2c-0.7,0-1.1-0.5-1.1-1.2c0-0.7,0.5-1.2,1.2-1.2C361.2,23.8,361.6,24.3,361.6,25z
		 M359.5,38.2V27.9h1.9v10.3H359.5z"/>
	<path d="M373.8,32.9c0,3.8-2.6,5.5-5.1,5.5c-2.8,0-4.9-2-4.9-5.3c0-3.5,2.3-5.5,5.1-5.5C371.8,27.6,373.8,29.8,373.8,32.9z
		 M365.7,33c0,2.3,1.3,4,3.1,4c1.8,0,3.1-1.7,3.1-4c0-1.7-0.9-4-3.1-4C366.6,29,365.7,31.1,365.7,33z"/>
	<path d="M376.2,30.7c0-1.1,0-1.9-0.1-2.8h1.7l0.1,1.7h0c0.5-1,1.7-1.9,3.4-1.9c1.4,0,3.6,0.9,3.6,4.4v6.2h-1.9v-5.9
		c0-1.7-0.6-3-2.4-3c-1.2,0-2.2,0.9-2.5,1.9c-0.1,0.2-0.1,0.6-0.1,0.9v6.2h-1.9V30.7z"/>
	<path d="M402.6,37.7c-0.7,0.3-2,0.7-3.8,0.7c-4,0-7.1-2.6-7.1-7.3c0-4.5,3-7.5,7.5-7.5c1.8,0,2.9,0.4,3.4,0.6l-0.4,1.5
		c-0.7-0.3-1.7-0.6-2.9-0.6c-3.4,0-5.6,2.2-5.6,5.9c0,3.5,2,5.8,5.5,5.8c1.1,0,2.3-0.2,3-0.6L402.6,37.7z"/>
	<path d="M405.7,33.4c0,2.5,1.7,3.6,3.5,3.6c1.3,0,2.2-0.2,2.9-0.5l0.3,1.3c-0.7,0.3-1.8,0.6-3.4,0.6c-3.2,0-5.1-2.1-5.1-5.2
		c0-3.1,1.8-5.6,4.8-5.6c3.4,0,4.3,3,4.3,4.9c0,0.4,0,0.7-0.1,0.9H405.7z M411.2,32c0-1.2-0.5-3-2.6-3c-1.9,0-2.7,1.7-2.9,3H411.2z"
		/>
	<path d="M415.3,30.7c0-1.1,0-1.9-0.1-2.8h1.7l0.1,1.7h0c0.5-1,1.7-1.9,3.4-1.9c1.4,0,3.6,0.9,3.6,4.4v6.2h-1.9v-5.9
		c0-1.7-0.6-3-2.4-3c-1.2,0-2.2,0.9-2.5,1.9c-0.1,0.2-0.1,0.6-0.1,0.9v6.2h-1.9V30.7z"/>
	<path d="M429.3,24.9v3h2.7v1.4h-2.7v5.6c0,1.3,0.4,2,1.4,2c0.5,0,0.9-0.1,1.1-0.1l0.1,1.4c-0.4,0.1-0.9,0.3-1.7,0.3
		c-0.9,0-1.6-0.3-2-0.8c-0.5-0.6-0.7-1.5-0.7-2.7v-5.6h-1.6v-1.4h1.6v-2.5L429.3,24.9z"/>
	<path d="M435,33.4c0,2.5,1.7,3.6,3.5,3.6c1.3,0,2.2-0.2,2.9-0.5l0.3,1.3c-0.7,0.3-1.8,0.6-3.4,0.6c-3.2,0-5.1-2.1-5.1-5.2
		c0-3.1,1.8-5.6,4.8-5.6c3.4,0,4.3,3,4.3,4.9c0,0.4,0,0.7-0.1,0.9H435z M440.5,32c0-1.2-0.5-3-2.6-3c-1.9,0-2.7,1.7-2.9,3H440.5z"/>
	<path d="M444.7,31.1c0-1.2,0-2.3-0.1-3.2h1.6l0.1,2h0.1c0.5-1.4,1.6-2.3,2.9-2.3c0.2,0,0.4,0,0.5,0.1v1.8c-0.2,0-0.4-0.1-0.6-0.1
		c-1.3,0-2.3,1-2.5,2.4c0,0.3-0.1,0.6-0.1,0.9v5.5h-1.9V31.1z"/>
	<path d="M264.7,57.4c-0.1-2-0.2-4.4-0.2-6.2h-0.1c-0.5,1.7-1.1,3.5-1.8,5.5l-2.5,7h-1.4l-2.3-6.8c-0.7-2-1.3-3.9-1.7-5.6h0
		c0,1.8-0.1,4.2-0.3,6.3l-0.4,6.2h-1.8l1-14.4h2.4l2.4,6.9c0.6,1.8,1.1,3.3,1.4,4.8h0.1c0.4-1.4,0.9-3,1.5-4.8l2.6-6.9h2.4l0.9,14.4
		H265L264.7,57.4z"/>
	<path d="M270.8,58.9c0,2.5,1.7,3.6,3.5,3.6c1.3,0,2.2-0.2,2.9-0.5l0.3,1.3c-0.7,0.3-1.8,0.6-3.4,0.6c-3.2,0-5.1-2.1-5.1-5.2
		c0-3.1,1.8-5.6,4.8-5.6c3.4,0,4.3,3,4.3,4.9c0,0.4,0,0.7-0.1,0.9H270.8z M276.3,57.6c0-1.2-0.5-3-2.6-3c-1.9,0-2.7,1.7-2.9,3H276.3
		z"/>
	<path d="M280.4,56.2c0-1.1,0-1.9-0.1-2.8h1.6l0.1,1.7h0.1c0.6-1,1.5-1.9,3.2-1.9c1.4,0,2.5,0.9,2.9,2.1h0c0.3-0.6,0.7-1,1.2-1.3
		c0.6-0.5,1.3-0.7,2.3-0.7c1.4,0,3.4,0.9,3.4,4.5v6.1h-1.8v-5.8c0-2-0.7-3.2-2.2-3.2c-1.1,0-1.9,0.8-2.2,1.7
		c-0.1,0.3-0.1,0.6-0.1,0.9v6.4h-1.8v-6.2c0-1.6-0.7-2.8-2.2-2.8c-1.2,0-2,0.9-2.3,1.9c-0.1,0.3-0.1,0.6-0.1,0.9v6.2h-1.8V56.2z"/>
	<path d="M298.1,63.7c0-0.7,0.1-1.7,0.1-2.7V48.6h1.9v6.5h0c0.7-1.2,1.9-1.9,3.5-1.9c2.6,0,4.4,2.1,4.3,5.3c0,3.7-2.3,5.5-4.6,5.5
		c-1.5,0-2.7-0.6-3.5-1.9h-0.1l-0.1,1.7H298.1z M300.1,59.6c0,0.2,0,0.5,0.1,0.7c0.4,1.3,1.4,2.2,2.8,2.2c2,0,3.1-1.6,3.1-4
		c0-2.1-1.1-3.8-3.1-3.8c-1.3,0-2.5,0.9-2.9,2.3c0,0.2-0.1,0.5-0.1,0.8V59.6z"/>
	<path d="M311.4,58.9c0,2.5,1.7,3.6,3.5,3.6c1.3,0,2.2-0.2,2.9-0.5l0.3,1.3c-0.7,0.3-1.8,0.6-3.4,0.6c-3.2,0-5.1-2.1-5.1-5.2
		c0-3.1,1.8-5.6,4.8-5.6c3.4,0,4.3,3,4.3,4.9c0,0.4,0,0.7-0.1,0.9H311.4z M316.9,57.6c0-1.2-0.5-3-2.6-3c-1.9,0-2.7,1.7-2.9,3H316.9
		z"/>
	<path d="M321,56.6c0-1.2,0-2.3-0.1-3.2h1.6l0.1,2h0.1c0.5-1.4,1.6-2.3,2.9-2.3c0.2,0,0.4,0,0.5,0.1V55c-0.2,0-0.4-0.1-0.6-0.1
		c-1.3,0-2.3,1-2.5,2.4c0,0.3-0.1,0.6-0.1,0.9v5.5H321V56.6z"/>
	<path d="M341.8,58.5c0,3.8-2.6,5.5-5.1,5.5c-2.8,0-4.9-2-4.9-5.3c0-3.5,2.3-5.5,5.1-5.5C339.8,53.2,341.8,55.3,341.8,58.5z
		 M333.6,58.6c0,2.3,1.3,4,3.1,4c1.8,0,3.1-1.7,3.1-4c0-1.7-0.9-4-3.1-4C334.6,54.6,333.6,56.6,333.6,58.6z"/>
	<path d="M344.4,63.7v-8.9h-1.4v-1.4h1.4v-0.5c0-1.4,0.3-2.8,1.2-3.6c0.7-0.7,1.6-1,2.5-1c0.7,0,1.2,0.1,1.6,0.3l-0.3,1.4
		c-0.3-0.1-0.7-0.2-1.2-0.2c-1.6,0-2,1.4-2,3v0.6h2.5v1.4h-2.5v8.9H344.4z"/>
	<path d="M355,49.4h7.7v1.6h-5.9v4.8h5.4v1.5h-5.4v6.5H355V49.4z"/>
	<path d="M370,63.7l-0.1-1.3h-0.1c-0.6,0.8-1.7,1.5-3.2,1.5c-2.1,0-3.2-1.5-3.2-3c0-2.5,2.2-3.9,6.2-3.8V57c0-0.9-0.2-2.4-2.3-2.4
		c-1,0-2,0.3-2.7,0.8l-0.4-1.2c0.9-0.6,2.1-0.9,3.4-0.9c3.2,0,3.9,2.2,3.9,4.2v3.9c0,0.9,0,1.8,0.2,2.5H370z M369.8,58.5
		c-2,0-4.4,0.3-4.4,2.3c0,1.2,0.8,1.8,1.8,1.8c1.3,0,2.2-0.9,2.5-1.7c0.1-0.2,0.1-0.4,0.1-0.6V58.5z"/>
	<path d="M374.6,56.6c0-1.2,0-2.3-0.1-3.2h1.6l0.1,2h0.1c0.5-1.4,1.6-2.3,2.9-2.3c0.2,0,0.4,0,0.5,0.1V55c-0.2,0-0.4-0.1-0.6-0.1
		c-1.3,0-2.3,1-2.5,2.4c0,0.3-0.1,0.6-0.1,0.9v5.5h-1.9V56.6z"/>
	<path d="M393.6,57H388v5.2h6.2v1.6h-8.1V49.4h7.8v1.6H388v4.5h5.6V57z"/>
	<path d="M402.3,63.7l-0.1-1.3H402c-0.6,0.8-1.7,1.5-3.2,1.5c-2.1,0-3.2-1.5-3.2-3c0-2.5,2.2-3.9,6.2-3.8V57c0-0.9-0.2-2.4-2.3-2.4
		c-1,0-2,0.3-2.7,0.8l-0.4-1.2c0.9-0.6,2.1-0.9,3.4-0.9c3.2,0,3.9,2.2,3.9,4.2v3.9c0,0.9,0,1.8,0.2,2.5H402.3z M402,58.5
		c-2,0-4.4,0.3-4.4,2.3c0,1.2,0.8,1.8,1.8,1.8c1.3,0,2.2-0.9,2.5-1.7c0.1-0.2,0.1-0.4,0.1-0.6V58.5z"/>
	<path d="M406.6,61.8c0.6,0.4,1.5,0.7,2.5,0.7c1.4,0,2-0.7,2-1.5c0-0.9-0.5-1.4-1.9-1.9c-1.9-0.7-2.7-1.7-2.7-2.9c0-1.7,1.3-3,3.6-3
		c1,0,2,0.3,2.5,0.6l-0.5,1.4c-0.4-0.3-1.2-0.6-2.1-0.6c-1.1,0-1.7,0.6-1.7,1.4c0,0.9,0.6,1.2,2,1.7c1.8,0.7,2.7,1.6,2.7,3.1
		c0,1.8-1.4,3.1-3.9,3.1c-1.1,0-2.2-0.3-2.9-0.7L406.6,61.8z"/>
	<path d="M417.5,50.5v3h2.7v1.4h-2.7v5.6c0,1.3,0.4,2,1.4,2c0.5,0,0.9-0.1,1.1-0.1l0.1,1.4c-0.4,0.1-0.9,0.3-1.7,0.3
		c-0.9,0-1.6-0.3-2-0.8c-0.5-0.6-0.7-1.5-0.7-2.7v-5.6h-1.6v-1.4h1.6V51L417.5,50.5z"/>
	<path d="M423.2,58.9c0,2.5,1.7,3.6,3.5,3.6c1.3,0,2.2-0.2,2.9-0.5l0.3,1.3c-0.7,0.3-1.8,0.6-3.4,0.6c-3.2,0-5.1-2.1-5.1-5.2
		c0-3.1,1.8-5.6,4.8-5.6c3.4,0,4.3,3,4.3,4.9c0,0.4,0,0.7-0.1,0.9H423.2z M428.7,57.6c0-1.2-0.5-3-2.6-3c-1.9,0-2.7,1.7-2.9,3H428.7
		z"/>
	<path d="M432.8,56.6c0-1.2,0-2.3-0.1-3.2h1.6l0.1,2h0.1c0.5-1.4,1.6-2.3,2.9-2.3c0.2,0,0.4,0,0.5,0.1V55c-0.2,0-0.4-0.1-0.6-0.1
		c-1.3,0-2.3,1-2.5,2.4c0,0.3-0.1,0.6-0.1,0.9v5.5h-1.9V56.6z"/>
	<path d="M439.9,56.2c0-1.1,0-1.9-0.1-2.8h1.7l0.1,1.7h0c0.5-1,1.7-1.9,3.4-1.9c1.4,0,3.6,0.9,3.6,4.4v6.2h-1.9v-5.9
		c0-1.7-0.6-3-2.4-3c-1.2,0-2.2,0.9-2.5,1.9c-0.1,0.2-0.1,0.6-0.1,0.9v6.2h-1.9V56.2z"/>
	<path d="M467.2,63.1c-0.8,0.3-2.5,0.8-4.4,0.8c-2.2,0-4-0.6-5.4-1.9c-1.2-1.2-2-3.1-2-5.3c0-4.3,3-7.4,7.8-7.4c1.7,0,3,0.4,3.6,0.7
		l-0.4,1.5c-0.8-0.3-1.7-0.6-3.2-0.6c-3.5,0-5.8,2.2-5.8,5.8c0,3.6,2.2,5.8,5.5,5.8c1.2,0,2-0.2,2.5-0.4v-4.3h-2.9v-1.5h4.7V63.1z"
		/>
	<path d="M470,56.6c0-1.2,0-2.3-0.1-3.2h1.6l0.1,2h0.1c0.5-1.4,1.6-2.3,2.9-2.3c0.2,0,0.4,0,0.5,0.1V55c-0.2,0-0.4-0.1-0.6-0.1
		c-1.3,0-2.3,1-2.5,2.4c0,0.3-0.1,0.6-0.1,0.9v5.5H470V56.6z"/>
	<path d="M486.1,58.5c0,3.8-2.6,5.5-5.1,5.5c-2.8,0-4.9-2-4.9-5.3c0-3.5,2.3-5.5,5.1-5.5C484.1,53.2,486.1,55.3,486.1,58.5z
		 M477.9,58.6c0,2.3,1.3,4,3.1,4c1.8,0,3.1-1.7,3.1-4c0-1.7-0.9-4-3.1-4C478.8,54.6,477.9,56.6,477.9,58.6z"/>
	<path d="M497.1,60.9c0,1.1,0,2,0.1,2.8h-1.7l-0.1-1.7h0c-0.5,0.8-1.6,1.9-3.4,1.9c-1.6,0-3.6-0.9-3.6-4.5v-6h1.9v5.7
		c0,2,0.6,3.3,2.3,3.3c1.3,0,2.1-0.9,2.5-1.7c0.1-0.3,0.2-0.6,0.2-1v-6.3h1.9V60.9z"/>
	<path d="M500.2,56.8c0-1.3,0-2.4-0.1-3.4h1.7l0.1,1.8h0c0.8-1.3,2-2,3.7-2c2.5,0,4.4,2.1,4.4,5.2c0,3.7-2.3,5.5-4.7,5.5
		c-1.4,0-2.6-0.6-3.2-1.6h0V68h-1.9V56.8z M502,59.5c0,0.3,0,0.5,0.1,0.8c0.3,1.3,1.5,2.2,2.8,2.2c2,0,3.1-1.6,3.1-4
		c0-2.1-1.1-3.8-3.1-3.8c-1.3,0-2.5,0.9-2.8,2.3c-0.1,0.2-0.1,0.5-0.1,0.8V59.5z"/>
</g>
<path d="M51.4,28.8c-2.1-1.8-4.5-3.1-7.4-4.1c-2.9-1-6-1.5-9.4-1.5H18v7.1h16.7c2.1,0,4.1,0.3,6,1c1.8,0.7,3.4,1.6,4.7,2.7
	c1.3,1.2,2.4,2.6,3.1,4.2c0.7,1.6,1.1,3.4,1.1,5.3c0,1.9-0.4,3.7-1.1,5.3c-0.7,1.6-1.8,3.1-3.1,4.2c-1.3,1.2-2.9,2.1-4.7,2.8
	c-1.8,0.7-3.8,1-6,1H18V64h16.7c3.4,0,6.5-0.5,9.4-1.6c2.9-1.1,5.3-2.5,7.4-4.4c2.1-1.9,3.7-4,4.8-6.6c1.2-2.5,1.7-5.3,1.7-8.2
	c0-3-0.6-5.6-1.7-8.1C55.1,32.7,53.5,30.6,51.4,28.8z"/>
<rect x="112" y="23.3" width="8.3" height="40.5"/>
<g>
	<rect x="168.6" y="56.6" width="34" height="7.2"/>
	<rect x="168.6" y="39.9" width="34" height="7.2"/>
	<rect x="168.6" y="23.3" width="34" height="7.2"/>
</g>
<path d="M92.9,51.5c3.1-1,5.5-2.6,7.2-4.9c1.7-2.3,2.6-5.1,2.6-8.5c0-2.3-0.4-4.3-1.2-6.1c-0.8-1.8-1.9-3.4-3.4-4.7
	c-1.5-1.3-3.3-2.3-5.4-2.9c-2.1-0.7-4.6-1-7.3-1H59.8v7.1h25.7c2.9,0,5.1,0.6,6.7,1.9c1.6,1.3,2.4,3.2,2.4,5.9c0,2.6-0.8,4.6-2.3,6
	c-1.5,1.4-3.8,2.1-6.8,2.1H65.6v6.2h17.8l12,11.2h11.8L92.9,51.5z"/>
<polygon points="165.1,23.3 155.6,23.3 135.2,51.2 125.9,63.7 135.5,63.7 155.8,35.8 "/>
</svg>
